<?xml version="1.0" standalone="no"?>
<!DOCTYPE svg PUBLIC "-//W3C//DTD SVG 20010904//EN"
 "http://www.w3.org/TR/2001/REC-SVG-20010904/DTD/svg10.dtd">
<svg version="1.0" xmlns="http://www.w3.org/2000/svg"
 width="183.000000pt" height="163.000000pt" viewBox="0 0 183.000000 163.000000"
 preserveAspectRatio="xMidYMid meet">

<g transform="translate(0.000000,163.000000) scale(0.100000,-0.100000)"
fill="#000000" stroke="none">
<path d="M920 1380 c0 -6 -74 -204 -165 -440 -91 -236 -165 -435 -165 -442 1
-15 67 -95 73 -88 4 5 217 576 243 653 9 26 19 47 22 47 4 0 37 -80 73 -178
l65 -177 57 -3 57 -3 -18 48 c-213 558 -242 629 -242 583z"/>
<path d="M776 1279 c-60 -14 -154 -68 -214 -124 -213 -194 -250 -517 -86 -758
113 -165 291 -249 498 -234 80 6 179 33 223 62 21 14 22 17 8 56 -8 22 -17 44
-20 49 -3 4 -33 -6 -68 -23 -59 -31 -67 -32 -182 -32 -114 0 -123 2 -186 31
-77 37 -161 116 -201 190 -74 137 -77 320 -7 457 35 67 135 164 205 197 57 28
62 33 81 85 23 62 24 61 -51 44z"/>
<path d="M1035 1233 c18 -45 29 -59 51 -67 47 -15 131 -75 173 -122 38 -44 39
-44 105 -44 l67 0 -16 29 c-24 47 -125 151 -181 187 -55 36 -158 74 -198 74
l-25 0 24 -57z"/>
<path d="M815 701 c-3 -6 -12 -28 -20 -50 l-14 -41 289 0 c160 0 290 -2 290
-5 0 -2 -9 -27 -20 -56 l-20 -51 21 -59 c12 -33 27 -58 33 -56 6 2 27 36 47
75 33 65 55 143 62 217 l2 30 -332 3 c-204 1 -334 -1 -338 -7z"/>
<path d="M1140 565 c0 -4 116 -313 145 -387 6 -14 19 -18 61 -18 30 0 54 4 54
9 0 5 -33 96 -74 203 l-74 193 -56 3 c-31 2 -56 0 -56 -3z"/>
<path d="M482 232 c-12 -32 -22 -61 -22 -65 0 -4 24 -7 54 -7 51 0 54 2 66 31
13 30 12 32 -26 65 -21 18 -41 33 -44 34 -3 0 -15 -26 -28 -58z"/>
</g>
</svg>
